# xmcd
#
# Track frame offsets: 
#        150
#        31808
#        54014
#        80288
#        106650
#        129982
#        148649
#        170232
#        189188
#        219052
#        247650
#        276217
#
# Disc length: 3935 seconds
#
# Revision: 0
# Processed by: cddbd v1.5.2PL0 Copyright (c) Steve Scherf et al.
# Submitted via: ExactAudioCopy v0.99pb4
#
DISCID=8d0f5d0c
DTITLE=Paul Laurence - Haven't You Heard
DYEAR=1985
DGENRE=R&B
TTITLE0=Strung Out
TTITLE1=She's Not A Sleaze
TTITLE2=You Hooked Me
TTITLE3=Good and Plenty
TTITLE4=Racism!!!
TTITLE5=Haven't You Heard
TTITLE6=There Ain't Nothin' (Like Your Lovin')
TTITLE7=I'm Sensitive
TTITLE8=Strung Out (International Version)
TTITLE9=She's Not A Sleaze (Extended Mix)
TTITLE10=Strung Out (Extended Dance Mix)
TTITLE11=You Hooked Me (Single Version)
EXTD=
EXTT0=
EXTT1=
EXTT2=
EXTT3=
EXTT4=
EXTT5=
EXTT6=
EXTT7=
EXTT8=
EXTT9=
EXTT10=
EXTT11=
PLAYORDER=
